<?xml version="1.0" encoding="UTF-8"?>
<svg version="1.1" xmlns="http://www.w3.org/2000/svg" width="2045" height="493">
<path d="M0 0 C2.1039275 0.01613704 4.20594297 0.00000986 6.30981445 -0.01904297 C27.37428632 -0.05158256 27.37428632 -0.05158256 35.53833008 5.39111328 C29.98220734 15.45769814 24.39736822 25.49671112 18.53833008 35.39111328 C14.50651231 34.81106403 12.16429522 32.71194821 9.03833008 30.20361328 C-3.01312628 20.80858006 -14.29498859 17.02652097 -29.46166992 18.39111328 C-36.87222353 19.96686891 -42.88678084 23.31653476 -48.46166992 28.39111328 C-49.3356543 29.18388672 -49.3356543 29.18388672 -50.22729492 29.99267578 C-71.57731667 51.82355388 -75.6746086 92.5652344 -81.62959313 120.76947308 C-82.39428493 124.38555813 -83.16509194 128.00034034 -83.93510437 131.61529541 C-85.23021011 137.69934366 -86.52154817 143.78418059 -87.81005859 149.86962891 C-89.59297878 158.29009339 -91.38253352 166.70913685 -93.17358339 175.12787533 C-96.682979 191.62525789 -100.17899155 208.12545249 -103.66622543 224.62753296 C-104.41982125 228.19310973 -105.17404249 231.75855369 -105.92837524 235.32397461 C-106.99607826 240.37245554 -108.06093103 245.42152811 -109.12299156 250.47119904 C-109.48985518 252.21421995 -109.85746769 253.95708347 -110.22596169 255.69976044 C-116.50982253 284.33246533 -116.50982253 284.33246533 -118.96166992 313.45361328 C-118.9681958 314.19160156 -118.97472168 314.92958984 -118.98144531 315.68994141 C-118.8496485 320.98199332 -117.54217391 325.0554008 -113.99682617 329.03564453 C-108.39089813 333.4817254 -103.95770635 333.55960227 -96.97729492 333.70751953 C-96.16170105 333.72830063 -95.34610718 333.74908173 -94.50579834 333.77049255 C-91.90783887 333.83572625 -89.30978079 333.89475096 -86.71166992 333.95361328 C-84.94733692 333.99682342 -83.1830138 334.0404385 -81.41870117 334.08447266 C-77.09979109 334.19138073 -72.78078208 334.29272155 -68.46166992 334.39111328 C-68.77038114 336.18343666 -69.08376056 337.9749565 -69.39916992 339.76611328 C-69.66020508 341.26271484 -69.66020508 341.26271484 -69.92651367 342.78955078 C-70.46166992 345.39111328 -70.46166992 345.39111328 -71.46166992 347.39111328 C-74.43636932 348.09279572 -77.35925479 348.6669557 -80.3684082 349.17871094 C-81.30340652 349.34481369 -82.23840485 349.51091644 -83.20173645 349.68205261 C-86.31034621 350.23186555 -89.42103416 350.76876516 -92.53198242 351.30517578 C-94.68865322 351.68285986 -96.84521735 352.06115351 -99.00167847 352.44003296 C-103.53198586 353.2339963 -108.06330514 354.02182282 -112.59545898 354.80517578 C-118.39773419 355.80837242 -124.19763603 356.82457187 -129.99687386 357.84516335 C-134.45539058 358.62866653 -138.91492852 359.40622042 -143.37481308 360.18189621 C-145.51286403 360.55428703 -147.65063655 360.92828015 -149.78812027 361.30391312 C-152.78395047 361.82925685 -155.78102376 362.34682277 -158.77856445 362.86230469 C-159.65884811 363.01812515 -160.53913177 363.17394562 -161.4460907 363.33448792 C-166.19490542 364.1418482 -170.64463095 364.55011208 -175.46166992 364.39111328 C-173.04464915 352.17210425 -170.62697263 339.95322514 -168.20857525 327.73448849 C-167.08423461 322.0537627 -165.96007697 316.37300087 -164.83642578 310.69213867 C-158.08914507 276.58278896 -151.28070672 242.4862973 -144.46166992 208.39111328 C-185.38166992 208.39111328 -226.30166992 208.39111328 -268.46166992 208.39111328 C-270.93666992 221.75611328 -270.93666992 221.75611328 -273.46166992 235.39111328 C-284.28906381 279.42251508 -306.47201277 318.54207122 -345.46166992 343.39111328 C-346.53932617 344.08076172 -347.61698242 344.77041016 -348.72729492 345.48095703 C-375.92404089 361.95712523 -410.01295237 367.46031384 -441.04760742 360.42236328 C-455.20421722 356.80489869 -467.52425239 350.06751091 -478.46166992 340.39111328 C-477.59356688 335.75234714 -474.78899286 333.30329989 -471.52807617 330.09423828 C-470.63837379 329.20378815 -470.63837379 329.20378815 -469.73069763 328.29534912 C-468.47753923 327.04452826 -467.22069357 325.79739217 -465.96044922 324.55371094 C-464.02611033 322.64302996 -462.10549948 320.71931132 -460.1862793 318.79345703 C-458.96766962 317.58042193 -457.74829445 316.36815524 -456.52807617 315.15673828 C-455.66237755 314.28967255 -455.66237755 314.28967255 -454.77919006 313.40509033 C-450.69270033 309.39111328 -450.69270033 309.39111328 -448.46166992 309.39111328 C-447.06057134 311.34480031 -445.75601397 313.30614846 -444.46166992 315.32861328 C-436.93925873 326.52468936 -427.78146167 333.18377862 -415.46166992 338.39111328 C-414.61475586 338.75333984 -413.7678418 339.11556641 -412.89526367 339.48876953 C-399.75947381 344.02198754 -382.04834403 343.14808638 -369.46166992 337.39111328 C-348.31517609 327.00228346 -337.18189467 306.02959302 -329.83666992 284.57861328 C-323.27086148 264.49864224 -319.79351942 243.42902916 -315.7331543 222.72851562 C-315.58904617 221.99660004 -315.44493805 221.26468445 -315.29646301 220.5105896 C-314.90355928 218.51274527 -314.51298337 216.51444354 -314.12255859 214.51611328 C-313.46166992 211.39111328 -313.46166992 211.39111328 -312.46166992 208.39111328 C-324.01166992 208.39111328 -335.56166992 208.39111328 -347.46166992 208.39111328 C-345.58588496 204.63954336 -343.62483473 201.97401635 -340.96166992 198.76611328 C-340.16760742 197.80447266 -339.37354492 196.84283203 -338.55541992 195.85205078 C-334.78389716 191.41910425 -334.78389716 191.41910425 -331.84790039 191.1640625 C-330.76911621 191.17453613 -329.69033203 191.18500977 -328.57885742 191.19580078 C-326.82895508 191.20546875 -326.82895508 191.20546875 -325.04370117 191.21533203 C-323.82038086 191.23208984 -322.59706055 191.24884766 -321.33666992 191.26611328 C-320.10561523 191.27513672 -318.87456055 191.28416016 -317.60620117 191.29345703 C-314.55783177 191.3170878 -311.5098461 191.35003274 -308.46166992 191.39111328 C-308.38891138 190.49738982 -308.38891138 190.49738982 -308.31468296 189.58561134 C-307.73644625 183.13366039 -306.70113611 176.87171339 -305.42041016 170.52539062 C-305.11295364 168.97238251 -305.11295364 168.97238251 -304.79928589 167.38800049 C-304.12742195 164.0001099 -303.44889958 160.61359074 -302.77026367 157.22705078 C-302.30045446 154.86487911 -301.8310648 152.50262396 -301.36207581 150.14028931 C-300.13163374 143.94831895 -298.89552362 137.75749353 -297.65820312 131.56689453 C-296.39458488 125.2394552 -295.13636717 118.91094237 -293.87768555 112.58251953 C-291.41094497 100.18433177 -288.93839457 87.78731022 -286.46166992 75.39111328 C-300.95082797 70.56139393 -319.46474018 74.6734587 -332.71166992 81.14111328 C-338.83309832 84.28956412 -344.35467473 87.73700257 -349.46166992 92.39111328 C-350.67209961 93.46425781 -350.67209961 93.46425781 -351.90698242 94.55908203 C-365.86623627 107.64321446 -374.7372584 125.25164491 -376.46166992 144.39111328 C-376.32148438 145.92964966 -376.32148438 145.92964966 -376.1784668 147.49926758 C-375.96069844 151.27382352 -376.13265521 153.83229827 -377.46166992 157.39111328 C-382.35984739 161.37362732 -387.85577899 163.60939559 -393.64916992 166.01611328 C-395.18581025 166.69751647 -396.72035055 167.38367644 -398.25268555 168.07470703 C-401.07896007 169.34257458 -403.91458643 170.58046633 -406.76708984 171.78808594 C-409.18370561 172.81382716 -411.47422256 173.90588578 -413.82226562 175.09960938 C-416.46166992 176.39111328 -416.46166992 176.39111328 -418.46166992 176.39111328 C-416.90580407 160.03404997 -414.09766915 144.53131094 -407.46166992 129.39111328 C-407.03241211 128.40884766 -406.6031543 127.42658203 -406.16088867 126.41455078 C-392.352586 96.93090734 -366.78706941 78.7055 -336.87866211 67.83276367 C-321.21273794 62.39748669 -304.89670338 59.35707507 -288.46166992 57.39111328 C-287.69588623 57.2932251 -286.93010254 57.19533691 -286.14111328 57.09448242 C-276.55192457 56.03130275 -266.90701745 56.28236444 -257.27416992 56.32861328 C-255.44539511 56.33363872 -253.61661895 56.33819978 -251.7878418 56.34228516 C-247.34575097 56.35320709 -242.90372551 56.37041405 -238.46166992 56.39111328 C-239.14921081 63.69643413 -240.42565447 70.78850276 -241.87011719 77.97924805 C-242.23609512 79.82464424 -242.23609512 79.82464424 -242.60946655 81.70732117 C-243.27400978 85.05434556 -243.94188298 88.40067185 -244.61129117 91.74672437 C-245.31202445 95.25353503 -246.00842857 98.76120523 -246.70530701 102.26878357 C-248.02325275 108.89896015 -249.34504803 115.52836305 -250.66825384 122.15749162 C-252.45774063 131.1238127 -254.24122622 140.09132722 -256.02506161 149.05877399 C-258.83238389 163.1705295 -261.64767584 177.28068287 -264.46166992 191.39111328 C-223.54166992 191.39111328 -182.62166992 191.39111328 -140.46166992 191.39111328 C-139.80166992 187.10111328 -139.14166992 182.81111328 -138.46166992 178.39111328 C-138.07745215 176.19784051 -137.68108478 174.00656431 -137.26000977 171.82006836 C-136.93859512 170.14555351 -136.93859512 170.14555351 -136.61068726 168.43721008 C-135.61975401 163.35845193 -134.62656458 158.28019036 -133.62329102 153.20385742 C-133.10190116 150.56173568 -132.58840102 147.91828074 -132.08227539 145.27319336 C-123.97330557 103.04051634 -111.48637432 65.9440212 -81.46166992 34.39111328 C-80.4794043 33.31216797 -80.4794043 33.31216797 -79.47729492 32.21142578 C-59.18560376 10.61898518 -29.18309558 -0.2650846 0 0 Z " fill="#2563EB" transform="translate(478.461669921875,-0.39111328125)"/>
<path d="M0 0 C0.77103058 -0.00570007 1.54206116 -0.01140015 2.3364563 -0.01727295 C3.9651759 -0.02667458 5.59391411 -0.03323756 7.22265625 -0.03710938 C9.65400797 -0.04671187 12.08447475 -0.07773742 14.515625 -0.109375 C25.25940372 -0.17978306 35.31470289 0.97032514 45.8203125 3.203125 C45.8203125 7.60099017 43.02904301 9.48123287 40.08984375 12.4375 C39.50240891 13.03492004 38.91497406 13.63234009 38.30973816 14.24786377 C37.06359354 15.50920615 35.81333343 16.76649378 34.55932617 18.02001953 C32.64181179 19.94409492 30.74954334 21.89083305 28.85742188 23.83984375 C27.64470481 25.06136262 26.43055789 26.28146393 25.21484375 27.5 C24.65005814 28.08634216 24.08527252 28.67268433 23.50337219 29.27679443 C21.86645508 30.88574219 21.86645508 30.88574219 18.8203125 33.203125 C16.22729492 33.15917969 16.22729492 33.15917969 13.8203125 32.203125 C13.02302734 31.95884766 12.22574219 31.71457031 11.40429688 31.46289062 C10.58251953 31.18123047 9.76074219 30.89957031 8.9140625 30.609375 C8.00527344 30.30128906 7.09648438 29.99320313 6.16015625 29.67578125 C4.26692708 29.02734375 2.37369792 28.37890625 0.48046875 27.73046875 C-0.42832031 27.42238281 -1.33710937 27.11429688 -2.2734375 26.796875 C-3.09521484 26.51521484 -3.91699219 26.23355469 -4.76367188 25.94335938 C-19.61317478 21.39367336 -38.08953551 22.805814 -51.96484375 29.55859375 C-54.49114213 30.97987474 -56.82802969 32.5104256 -59.1796875 34.203125 C-59.86417969 34.68136719 -60.54867188 35.15960938 -61.25390625 35.65234375 C-82.69348187 52.37437031 -89.66685881 87.77709128 -95.41113281 112.51489258 C-95.70782993 113.79162496 -96.00452705 115.06835733 -96.310215 116.38377857 C-100.18602378 133.23288431 -103.50191816 150.20028241 -106.8581686 167.15876365 C-107.80778986 171.95232826 -108.76261055 176.74485783 -109.71661377 181.53755188 C-111.31341831 189.56365285 -112.90626076 197.59053198 -114.49658203 205.61791992 C-116.32445479 214.84414534 -118.15857225 224.06911267 -119.99600959 233.29343766 C-121.78125794 242.25645781 -123.56222976 251.22032263 -125.34125519 260.18457985 C-126.09102391 263.96223195 -126.84220689 267.73959848 -127.59459686 271.51672935 C-128.48130313 275.96921601 -129.36420115 280.42244253 -130.2443676 284.87622643 C-130.56434367 286.49237048 -130.88552998 288.10827557 -131.20813942 289.72389603 C-132.23656128 294.87686742 -133.2312319 300.03481574 -134.1796875 305.203125 C-134.3297931 306.01830101 -134.4798987 306.83347703 -134.63455296 307.67335534 C-135.09122062 310.19824893 -135.52731794 312.72589076 -135.95733643 315.25544739 C-136.16471754 316.39847683 -136.16471754 316.39847683 -136.37628818 317.56459779 C-137.44455846 324.0778776 -137.83635268 330.49723853 -134.3046875 336.265625 C-129.45889322 339.27001746 -125.72570664 339.33469711 -120.1796875 338.203125 C-109.87586171 334.59745074 -101.19177299 328.51385583 -93.1796875 321.203125 C-92.22835938 320.35878906 -91.27703125 319.51445312 -90.296875 318.64453125 C-84.70293813 313.6399605 -79.3145222 308.43207575 -73.9921875 303.140625 C-73.14454834 302.29999512 -73.14454834 302.29999512 -72.27978516 301.44238281 C-69.37171624 298.59394621 -69.37171624 298.59394621 -67.1796875 295.203125 C-66.5196875 295.203125 -65.8596875 295.203125 -65.1796875 295.203125 C-65.43176921 298.22810554 -65.77767947 301.19661816 -66.1796875 304.203125 C-66.25960938 305.11964844 -66.33953125 306.03617187 -66.421875 306.98046875 C-68.60349126 321.23752236 -83.45191882 330.93542519 -94.1796875 339.203125 C-95.09878906 339.93917969 -96.01789063 340.67523438 -96.96484375 341.43359375 C-115.21801249 355.70693297 -133.36661504 363.96196981 -156.82324219 362.52099609 C-163.76136623 361.58508255 -169.64766215 358.52882992 -174.1796875 353.203125 C-190.18856866 325.69695646 -170.93916024 276.09651131 -165.1796875 247.203125 C-168.2777574 250.10242013 -169.87803204 253.35155735 -171.6796875 257.140625 C-179.40525682 272.91586247 -187.79058983 288.01874811 -198.1796875 302.203125 C-198.80375488 303.06260742 -198.80375488 303.06260742 -199.44042969 303.93945312 C-205.31079519 311.97454501 -211.72508168 319.3919701 -218.61328125 326.56933594 C-219.66021974 327.66131106 -220.70188347 328.75836721 -221.73828125 329.86035156 C-236.50374472 345.53714975 -255.87303249 361.53695753 -278.38671875 362.5390625 C-291.8481871 362.75689332 -302.48321975 362.17227466 -313.1796875 353.17578125 C-325.25231462 341.26820958 -327.30985403 324.27265197 -327.4921875 308.078125 C-327.25023316 259.94856727 -302.27896964 213.80017978 -269.60839844 179.69482422 C-268.29303532 178.32147004 -266.989679 176.9366426 -265.6875 175.55078125 C-235.45297573 144.17626672 -199.07865517 133.88912142 -156.4921875 132.640625 C-155.09699589 132.59730413 -153.70181348 132.55368622 -152.30664062 132.50976562 C-148.9310679 132.40464398 -145.55543357 132.30249623 -142.1796875 132.203125 C-141.88835937 131.3280127 -141.59703125 130.45290039 -141.296875 129.55126953 C-123.2133935 75.46431563 -123.2133935 75.46431563 -106.1796875 56.203125 C-105.4475 55.36265625 -104.7153125 54.5221875 -103.9609375 53.65625 C-101.73362965 51.13908702 -99.46935205 48.66359934 -97.1796875 46.203125 C-96.56738281 45.53667969 -95.95507812 44.87023438 -95.32421875 44.18359375 C-71.42048713 19.15857835 -34.90551306 0.20607052 0 0 Z M-220.1796875 158.203125 C-221.03046875 158.62722656 -221.88125 159.05132812 -222.7578125 159.48828125 C-254.07068549 176.72957175 -267.13455349 218.92748246 -276.48828125 250.93359375 C-280.84559744 266.56639998 -283.34361791 282.35400758 -283.4296875 298.578125 C-283.460625 300.02445312 -283.460625 300.02445312 -283.4921875 301.5 C-283.54110847 310.62376173 -282.28578642 320.05026627 -276.1796875 327.203125 C-272.64663592 330.47766061 -269.76648776 331.52982398 -265.0546875 331.828125 C-254.55675446 331.41448362 -245.8677459 324.84157259 -238.1796875 318.203125 C-237.39078125 317.52378906 -236.601875 316.84445312 -235.7890625 316.14453125 C-226.64453676 308.07836939 -218.07232451 299.60716692 -210.4765625 290.05859375 C-208.4685781 287.56227301 -206.40006521 285.13529341 -204.296875 282.71923828 C-190.12396106 266.35458443 -178.25081082 248.06343508 -167.3671875 229.390625 C-166.93519043 228.65078369 -166.50319336 227.91094238 -166.05810547 227.14868164 C-165.19495912 225.64670104 -164.34648282 224.13621209 -163.51147461 222.6184082 C-162.59786231 220.96151242 -161.65135587 219.32245775 -160.67797852 217.69995117 C-155.74839863 208.9117619 -154.0401716 199.74840701 -152.25415039 189.94555664 C-151.73682996 187.11127225 -151.19184524 184.28332835 -150.64257812 181.45507812 C-150.30048295 179.65134446 -149.95993016 177.84731742 -149.62109375 176.04296875 C-149.45976456 175.19927231 -149.29843536 174.35557587 -149.13221741 173.48631287 C-148.26375719 168.80849832 -148.26375719 168.80849832 -149.1796875 164.203125 C-151.48161209 163.0521627 -153.644988 162.13168193 -156.0546875 161.265625 C-156.77011719 161.00765137 -157.48554687 160.74967773 -158.22265625 160.48388672 C-176.87984962 154.0110651 -201.76890395 148.79251749 -220.1796875 158.203125 Z " fill="#2563EB" transform="translate(1383.1796875,-0.203125)"/>
<path d="M0 0 C2.41528744 0.01610842 4.82890261 0.0000247 7.24414062 -0.01904297 C17.92178156 -0.03122464 27.97374542 1.19001375 38.41601562 3.39111328 C37.56440871 7.76385411 35.5171825 9.56438738 32.29101562 12.64111328 C28.42787582 16.38533935 24.71578457 20.17853071 21.22998047 24.27880859 C19.24806125 26.58669084 17.23248643 28.86181032 15.20898438 31.13330078 C14.49637451 31.93364746 13.78376465 32.73399414 13.04956055 33.55859375 C12.24095581 34.46569092 12.24095581 34.46569092 11.41601562 35.39111328 C10.76640869 35.1289502 10.11680176 34.86678711 9.44750977 34.59667969 C6.4606679 33.39599528 3.46967218 32.20600594 0.47851562 31.01611328 C-1.05385742 30.39736328 -1.05385742 30.39736328 -2.6171875 29.76611328 C-12.36089749 25.90598536 -20.84424305 23.99779059 -31.33398438 24.01611328 C-32.29900879 24.01772461 -33.2640332 24.01933594 -34.25830078 24.02099609 C-42.00988638 24.15359072 -48.41568547 25.29765096 -55.58398438 28.39111328 C-56.34710937 28.70306641 -57.11023437 29.01501953 -57.89648438 29.33642578 C-62.27380036 31.30953412 -65.64716061 33.93884165 -69.13867188 37.21923828 C-70.58398438 38.39111328 -70.58398438 38.39111328 -72.58398438 38.39111328 C-72.84824219 38.96216797 -73.1125 39.53322266 -73.38476562 40.12158203 C-74.65352023 42.52271045 -76.13609423 44.5368149 -77.77148438 46.70361328 C-103.36246848 83.23950174 -107.43444776 136.64836523 -115.79283017 179.47412997 C-117.97126266 190.63520232 -120.16321001 201.79362562 -122.35846764 212.95139945 C-123.24889296 217.47907612 -124.13354694 222.00785839 -125.01670837 226.53695679 C-125.47580141 228.87947514 -125.93498894 231.22197498 -126.39428711 233.56445312 C-126.6025412 234.6384285 -126.81079529 235.71240387 -127.02536011 236.81892395 C-127.21711319 237.7935408 -127.40886627 238.76815765 -127.60643005 239.77230835 C-127.85493792 241.04564309 -127.85493792 241.04564309 -128.10846615 242.34470177 C-128.58398438 244.39111328 -128.58398438 244.39111328 -129.58398438 246.39111328 C-127.19280723 244.20943244 -125.77694287 242.13530219 -124.34179688 239.24267578 C-123.92244873 238.41300293 -123.50310059 237.58333008 -123.07104492 236.72851562 C-122.62156494 235.83342285 -122.17208496 234.93833008 -121.70898438 234.01611328 C-110.04232074 211.34105619 -96.16609936 189.93225272 -78.58398438 171.39111328 C-77.47403413 170.08350067 -76.36951545 168.77125057 -75.27148438 167.45361328 C-61.20155378 151.37838884 -40.0123127 133.49455266 -17.96142578 131.10717773 C-15.30787582 130.99170966 -12.6771195 130.98099099 -10.02148438 131.01611328 C-8.69987305 130.99871094 -8.69987305 130.99871094 -7.3515625 130.98095703 C2.35835417 131.02395297 9.40600416 133.4120431 16.47070312 140.15673828 C24.37116818 149.23116803 25.16253755 162.38414135 24.60868454 173.88085365 C24.23591692 178.73759716 23.45732186 183.53382801 22.69970703 188.34301758 C22.4332157 190.05065419 22.4332157 190.05065419 22.16134071 191.79278851 C20.24786263 203.81093497 17.90823661 215.73322676 15.50195312 227.66064453 C15.04105754 229.96877187 14.58075369 232.27701743 14.1210022 234.58537292 C12.92651351 240.57662134 11.72580816 246.5666037 10.52313232 252.55621338 C8.59092393 262.1824611 6.66663018 271.81028652 4.74583817 281.43881798 C4.08053279 284.76768953 3.4113868 288.0957716 2.74179077 291.42378235 C-3.24266049 313.63345691 -3.24266049 313.63345691 -1.20898438 335.51611328 C0.73704668 337.76153373 1.72019701 338.31742416 4.66601562 338.62939453 C20.76891399 339.0639898 32.92511311 329.0309105 44.16015625 318.49365234 C52.05742829 310.94325206 59.73308369 303.15835901 67.41601562 295.39111328 C68.07601563 295.72111328 68.73601562 296.05111328 69.41601562 296.39111328 C68.38213436 311.43241821 63.30375391 319.36848649 52.15820312 329.35595703 C50.58333717 330.70786939 49.00296568 332.05340654 47.41601562 333.39111328 C46.76149414 333.95330566 46.10697266 334.51549805 45.43261719 335.09472656 C33.70598977 345.07650728 20.74868954 353.66538439 6.41601562 359.39111328 C5.58457031 359.73142578 4.753125 360.07173828 3.89648438 360.42236328 C-2.36501916 362.55226055 -8.65449761 362.72491747 -15.20898438 362.82861328 C-16.53349609 362.86220947 -16.53349609 362.86220947 -17.88476562 362.89648438 C-25.19384716 362.87053659 -31.14438863 361.16610917 -36.88867188 356.53173828 C-37.406875 355.90783203 -37.92507813 355.28392578 -38.45898438 354.64111328 C-38.99265625 354.02751953 -39.52632812 353.41392578 -40.07617188 352.78173828 C-48.37778503 339.61959514 -45.31572237 321.80097755 -42.69726562 307.28564453 C-42.48423294 306.07695709 -42.27120026 304.86826965 -42.05171204 303.62295532 C-39.81042308 291.08759376 -37.2494852 278.61305126 -34.72070312 266.13330078 C-34.50190113 265.05176664 -34.28309914 263.97023251 -34.05766678 262.85592461 C-29.91753139 242.39195547 -29.91753139 242.39195547 -27.85424805 232.38330078 C-26.69775506 226.77035635 -25.55962056 221.15394587 -24.4329319 215.53494644 C-24.0070309 213.42805522 -23.57464044 211.32246311 -23.13507652 209.21837997 C-21.0177405 199.07092297 -19.21775967 189.16402168 -19.1340332 178.77050781 C-19.12469348 177.99422468 -19.11535376 177.21794155 -19.10573101 176.41813469 C-19.20443035 170.68158437 -20.5711233 167.40397436 -24.58398438 163.39111328 C-35.2793712 161.93572836 -43.30247603 164.92254095 -51.95898438 170.95361328 C-85.62208732 196.58131454 -107.4298411 235.52477153 -128.71630859 271.26245117 C-130.58398438 274.39111328 -130.58398438 274.39111328 -131.99838257 276.37384033 C-137.27140548 284.17093349 -138.73472846 292.49024543 -140.45117188 301.55517578 C-140.77722073 303.20031542 -141.10497839 304.84511723 -141.43435669 306.48959351 C-142.28972352 310.78363944 -143.12205483 315.08182782 -143.94940186 319.38134766 C-144.95058234 324.55789085 -145.98075737 329.72873461 -147.00598145 334.90055847 C-148.55404076 342.7266367 -150.06547155 350.55898734 -151.58398438 358.39111328 C-166.10398437 359.05111328 -180.62398437 359.71111328 -195.58398438 360.39111328 C-194.4598279 350.27370499 -194.4598279 350.27370499 -193.41441345 346.10388184 C-193.18021887 345.15437653 -192.94602428 344.20487122 -192.70473289 343.22659302 C-192.44953188 342.21289642 -192.19433086 341.19919983 -191.93139648 340.15478516 C-191.37086753 337.87388386 -190.81131067 335.59274352 -190.25257874 333.31140137 C-189.80668239 331.49855904 -189.80668239 331.49855904 -189.35177803 329.64909363 C-183.42699276 305.45557197 -178.14383033 281.1741548 -173.33789062 256.73486328 C-173.18987236 255.98316486 -173.04185409 255.23146645 -172.88935041 254.45698929 C-170.92763136 244.49150188 -168.98563935 234.5222212 -167.05096436 224.55145264 C-164.78121559 212.85384747 -162.50235711 201.15803947 -160.20614189 189.46559954 C-159.49260586 185.82978613 -158.78252035 182.1933807 -158.08166695 178.55509949 C-146.99290886 120.99526179 -129.65322179 60.83348715 -79.70898438 24.70361328 C-55.44290064 8.50038165 -29.20342701 -0.23055337 0 0 Z " fill="#2563EB" transform="translate(1527.583984375,-0.39111328125)"/>
<path d="M0 0 C6.12495326 5.19799674 9.19696035 11.30182905 10.31616211 19.2434082 C11.00921013 29.43953062 9.98913239 39.47769472 8.109375 49.48828125 C7.89613586 50.65259674 7.68289673 51.81691223 7.4631958 53.01651001 C3.66021844 73.51342771 -0.48235293 93.94833714 -4.55627441 114.39263916 C-6.39274367 123.61133996 -8.2245487 132.83096851 -10.05617523 142.05063248 C-10.69167142 145.24707779 -11.3285443 148.44324638 -11.96563721 151.63937378 C-12.35374958 153.59014286 -12.74183304 155.54091769 -13.12988281 157.49169922 C-13.30544708 158.3705629 -13.48101135 159.24942657 -13.66189575 160.15492249 C-14.98140066 166.79674685 -16.16057711 173.20386021 -16.25 180 C-16.27578125 181.175625 -16.3015625 182.35125 -16.328125 183.5625 C-15.96211769 187.39686225 -15.02661287 189.74226717 -13 193 C-8.87719619 195.74853587 -5.83851662 195.68583335 -1 195 C8.50001743 192.13720013 15.85284176 184.55581322 23 178 C24.05574219 177.03513672 24.05574219 177.03513672 25.1328125 176.05078125 C29.32631499 172.02306839 32.92540675 167.52402909 36.5625 162.99609375 C38.62784754 160.4574374 40.74367986 157.97643085 42.89135742 155.50756836 C59.33459392 136.50551015 72.97081764 114.96132025 85.61572266 93.30761719 C86.8703426 91.2161414 88.18413128 89.1886822 89.54296875 87.1640625 C96.69589962 76.1871269 98.79342881 64.39612172 101.13427734 51.66015625 C102.35154223 45.05551142 103.65752699 38.46803199 104.95089722 31.87796021 C105.98177754 26.62452602 107.00770732 21.37031123 108.01757812 16.11279297 C108.20752853 15.12879517 108.39747894 14.14479736 108.59318542 13.13098145 C108.95366056 11.26269207 109.31191831 9.39397314 109.66767883 7.52478027 C109.82866562 6.69337524 109.9896524 5.86197021 110.15551758 5.00537109 C110.29508377 4.27708099 110.43464996 3.54879089 110.57844543 2.7984314 C111 1 111 1 112 -1 C126.68049912 -1.84840862 141.29597903 -2.13123182 156 -2 C154.95172173 4.89087306 153.39290253 11.62474749 151.69921875 18.37890625 C143.67980743 50.59179116 137.02116499 83.03200601 130.58536148 115.5943718 C129.87854929 119.16954711 129.1699052 122.74435573 128.46102905 126.31912231 C127.32436305 132.05641764 126.19405429 137.79493194 125.06890297 143.53449631 C124.65066509 145.66651075 124.23121751 147.79828833 123.81041527 149.92979813 C121.77723443 160.24423334 119.81926578 170.56835165 118.16064453 180.95043945 C118.02611311 181.74818126 117.89158169 182.54592306 117.75297356 183.36783886 C116.79865754 189.61467338 116.40733286 195.45173257 119.875 201 C124.65750083 204.06080053 128.48217932 204.05296702 134 203 C154.33373151 195.60163187 170.98127478 178.09916819 184.92578125 162.1328125 C185.61027344 161.42898438 186.29476563 160.72515625 187 160 C187.66 160 188.32 160 189 160 C188.7155186 162.20927044 188.4220904 164.41738979 188.125 166.625 C187.88136719 168.46964844 187.88136719 168.46964844 187.6328125 170.3515625 C184.70401512 187.2373449 166.13774532 200.15477584 152.72265625 209.79589844 C134.69953167 222.3936947 117.11397345 228.58177872 95 227 C88.75134638 225.80635615 84.05820641 223.23477119 80.25 218.07421875 C63.86496832 190.88530681 82.93424071 141.85522007 89 113 C88.34 113 87.68 113 87 113 C86.63350342 113.72364746 86.26700684 114.44729492 85.8894043 115.19287109 C78.46229064 129.81076536 70.90695574 144.21316957 62 158 C61.29359375 159.10214844 60.5871875 160.20429688 59.859375 161.33984375 C42.10106206 188.50167279 18.38260211 219.44167499 -15 227 C-18.51300331 227.40614275 -21.96601346 227.47868336 -25.5 227.4375 C-26.42055176 227.42920166 -27.34110352 227.42090332 -28.28955078 227.41235352 C-36.97878557 227.195547 -43.29854975 225.70390335 -49.875 219.8125 C-59.15086783 209.55448146 -59.64078597 195.5669009 -59.14573479 182.43635941 C-58.91652394 178.60446718 -58.38600381 174.84315427 -57.79516602 171.05224609 C-57.66427613 170.19888861 -57.53338625 169.34553112 -57.39853001 168.46631432 C-55.7648702 158.11640817 -53.71967206 147.84533473 -51.66963005 137.57136917 C-50.94624102 133.9458278 -50.22864544 130.31917823 -49.51234436 126.69223022 C-47.9924978 119.00213803 -46.4652626 111.31352276 -44.9375 103.625 C-43.16133902 94.68208182 -41.38830923 85.73855636 -39.62094307 76.79389572 C-38.91838205 73.24507614 -38.21128612 69.69718115 -37.50389099 66.14932251 C-31.93130101 43.59140877 -31.93130101 43.59140877 -34 21 C-41.66156056 18.44614648 -48.64835938 19.39878814 -55.875 22.8125 C-74.102551 32.47904334 -89.63380038 48.54533169 -103 64 C-105.1937359 57.89435743 -102.84911664 50.96233321 -101 45 C-98.85046042 41.08025135 -96.171487 38.13159408 -93 35 C-92.53271484 34.53529297 -92.06542969 34.07058594 -91.58398438 33.59179688 C-71.88160315 14.1960675 -29.20548885 -20.49001688 0 0 Z " fill="#2563EB" transform="translate(1699,135)"/>
<path d="M0 0 C1.78913315 -0.00143509 1.78913315 -0.00143509 3.6144104 -0.00289917 C6.13763481 -0.00357841 8.66086099 -0.00174197 11.18408203 0.00244141 C14.99125241 0.00774589 18.79830225 0.00251226 22.60546875 -0.00390625 C53.58092412 -0.01355418 53.58092412 -0.01355418 67.6640625 2.1328125 C67.41668335 3.18964233 67.41668335 3.18964233 67.16430664 4.26782227 C65.48537197 11.44379877 65.48537197 11.44379877 63.81385803 18.62150574 C62.27879084 25.2262707 60.74010674 31.8298673 59.16422653 38.42503166 C52.67695929 65.60755528 47.20599734 92.96179104 41.89141846 120.39459229 C40.99358922 125.02072479 40.08940905 129.64560629 39.18504429 134.2704649 C38.09366378 139.85302828 37.00558138 145.43623277 35.91796875 151.01953125 C35.71547579 152.05790319 35.51298283 153.09627514 35.30435371 154.1661129 C31.13691007 173.47726547 31.13691007 173.47726547 29.2265625 193.0703125 C29.18660156 194.29621094 29.14664063 195.52210938 29.10546875 196.78515625 C29.82480818 201.09616248 31.2216782 202.51466106 34.6640625 205.1328125 C41.33856834 207.33528763 47.6882297 204.64415046 53.6640625 201.6953125 C60.73677657 198.00923987 66.75620918 193.4960356 72.6640625 188.1328125 C73.4684375 187.43542969 74.2728125 186.73804688 75.1015625 186.01953125 C80.10952302 181.62954021 84.880293 177.01400296 89.6015625 172.3203125 C90.15763184 171.76891602 90.71370117 171.21751953 91.28662109 170.64941406 C93.50657026 168.42061506 95.55137009 166.28616453 97.41796875 163.74609375 C97.82917969 163.21371094 98.24039062 162.68132812 98.6640625 162.1328125 C99.3240625 162.1328125 99.9840625 162.1328125 100.6640625 162.1328125 C100.45643543 164.24368769 100.2356934 166.35384028 99.9609375 168.45703125 C99.61497329 171.10149012 99.61497329 171.10149012 99.6796875 173.65234375 C99.18578204 182.8033143 92.96290247 187.75035186 86.6171875 193.6171875 C85.30439309 194.79456472 83.98705183 195.96690277 82.6640625 197.1328125 C82.14005859 197.59494141 81.61605469 198.05707031 81.07617188 198.53320312 C78.02536257 201.18335895 74.86883266 203.67268011 71.6640625 206.1328125 C70.28734375 207.23496094 70.28734375 207.23496094 68.8828125 208.359375 C51.46147347 221.98735795 31.61123394 232.19186377 8.9140625 229.5078125 C1.92792541 228.26118445 -2.72653238 225.81274209 -7.6484375 220.7578125 C-24.88171199 193.95049663 -5.05294862 142.81318276 0.6640625 114.1328125 C-2.59782829 117.1483507 -4.06945245 120.62693585 -5.8359375 124.6328125 C-14.43069751 143.47564144 -25.6957212 160.77099942 -38.3359375 177.1328125 C-38.95210937 177.95652344 -39.56828125 178.78023437 -40.203125 179.62890625 C-57.90665008 202.41597368 -82.66613612 226.00519942 -112.5234375 229.9453125 C-125.29755682 230.77526941 -137.7043871 228.55603409 -147.6796875 220.16015625 C-159.84371311 207.65571948 -161.60563269 189.59490258 -161.58251953 172.98974609 C-161.24501039 148.71220498 -155.02846786 125.82141576 -144.3359375 104.1328125 C-143.98660156 103.41641602 -143.63726563 102.70001953 -143.27734375 101.96191406 C-122.54621054 59.87315736 -87.10753301 22.22763249 -42.20703125 6.671875 C-34.74518488 4.22413711 -27.07292051 2.46574289 -19.3359375 1.1328125 C-18.35383301 0.95556641 -17.37172852 0.77832031 -16.35986328 0.59570312 C-10.93501329 -0.1602024 -5.46588042 -0.00974414 0 0 Z M-54.3359375 25.1328125 C-55.18671875 25.55691406 -56.0375 25.98101562 -56.9140625 26.41796875 C-86.95748755 42.96028407 -100.13900639 82.74185784 -109.2734375 113.5078125 C-115.84551624 136.49192261 -124.01631961 169.10585456 -112.5234375 191.6953125 C-108.49263173 196.18678179 -105.28350445 198.37336222 -99.2109375 198.7578125 C-88.71203011 198.34413272 -80.02533564 191.77055228 -72.3359375 185.1328125 C-71.55863281 184.46507812 -70.78132812 183.79734375 -69.98046875 183.109375 C-60.46177591 174.72566143 -51.48932574 165.90185505 -43.6015625 155.95703125 C-41.5916689 153.45159491 -39.51577918 151.02152265 -37.4050293 148.60107422 C-22.44852236 131.35312153 -10.04738035 111.57910644 1.2890625 91.8203125 C1.78599609 90.9550293 2.28292969 90.08974609 2.79492188 89.19824219 C7.19599863 81.41242609 10.06627278 74.35776855 11.7421875 65.5859375 C11.91788269 64.69291931 12.09357788 63.79990112 12.27459717 62.87982178 C12.64135253 61.00477934 13.0041872 59.12896615 13.36328125 57.25244141 C13.91546006 54.37553109 14.48423494 51.50224245 15.0546875 48.62890625 C15.40984884 46.80227645 15.76404959 44.97545956 16.1171875 43.1484375 C16.28792786 42.28905579 16.45866821 41.42967407 16.63458252 40.54425049 C16.78514099 39.74622009 16.93569946 38.9481897 17.09082031 38.12597656 C17.22611145 37.42539124 17.36140259 36.72480591 17.50079346 36.00299072 C17.80884195 33.90458911 17.80884195 33.90458911 16.6640625 31.1328125 C14.36213791 29.9818502 12.198762 29.06136943 9.7890625 28.1953125 C9.07363281 27.93733887 8.35820313 27.67936523 7.62109375 27.41357422 C-11.03609962 20.9407526 -35.92515395 15.72220499 -54.3359375 25.1328125 Z " fill="#2563EB" transform="translate(938.3359375,132.8671875)"/>
<path d="M0 0 C0.78051727 -0.0033284 1.56103455 -0.0066568 2.36520386 -0.01008606 C4.01071591 -0.01512357 5.65623806 -0.01749537 7.30175781 -0.01733398 C9.77687132 -0.01950683 12.2515284 -0.03765879 14.7265625 -0.05664062 C32.98968517 -0.12286948 32.98968517 -0.12286948 41.6796875 2.16796875 C42.3396875 2.82796875 42.9996875 3.48796875 43.6796875 4.16796875 C43.03902344 4.79703125 42.39835937 5.42609375 41.73828125 6.07421875 C35.84793398 11.89581903 35.84793398 11.89581903 30.3046875 18.04296875 C27.14419651 21.69258334 23.8902151 25.24088457 20.5546875 28.73046875 C20.05146973 29.28009277 19.54825195 29.8297168 19.02978516 30.39599609 C17.546875 31.921875 17.546875 31.921875 14.6796875 34.16796875 C11.01294008 34.14584659 8.39741425 32.62173953 5.2421875 30.85546875 C-10.52322656 22.93823892 -30.74251512 20.77090761 -47.79296875 26.12890625 C-64.70300617 33.08110092 -73.60342637 43.85150948 -80.69995117 60.47900391 C-89.3985953 81.81329317 -93.5379872 104.35532725 -98.0135498 126.85960388 C-98.17133911 127.64682327 -98.32912842 128.43404266 -98.49169922 129.24511719 C-98.62824921 129.93297302 -98.76479919 130.62082886 -98.90548706 131.32952881 C-99.3203125 133.16796875 -99.3203125 133.16796875 -100.3203125 136.16796875 C-75.2403125 136.16796875 -50.1603125 136.16796875 -24.3203125 136.16796875 C-27.897143 140.93707608 -31.14672736 145.23772518 -35.1328125 149.54296875 C-38.06961947 152.6193592 -38.06961947 152.6193592 -40.3203125 156.16796875 C-41.60035156 156.03519531 -42.88039063 155.90242187 -44.19921875 155.765625 C-63.87751781 153.86740833 -83.56802094 153.57047556 -103.3203125 153.16796875 C-103.49475891 154.3148542 -103.49475891 154.3148542 -103.67272949 155.48490906 C-108.51034524 187.08267822 -113.89796256 218.5897597 -119.2804718 250.09825325 C-120.83983513 259.22662191 -122.39334781 268.35593833 -123.93833113 277.48675233 C-125.04421189 284.01966922 -126.15672323 290.55143675 -127.27397966 297.08241767 C-127.93320044 300.93680008 -128.58989224 304.79156475 -129.23942566 308.64759254 C-137.66328988 358.61228856 -149.33055974 410.803657 -185.15625 448.84765625 C-187.4455991 451.23405112 -187.4455991 451.23405112 -189.7578125 454.29296875 C-193.80200599 458.83035657 -198.53781114 462.43761769 -203.3203125 466.16796875 C-204.14273438 466.82925781 -204.96515625 467.49054688 -205.8125 468.171875 C-216.90811768 476.72690732 -229.61226077 483.33212584 -242.9453125 487.60546875 C-243.97978516 487.93925537 -243.97978516 487.93925537 -245.03515625 488.27978516 C-258.7411278 492.34835395 -272.32228185 493.64680035 -286.55126953 493.50415039 C-289.08267753 493.48035251 -291.61303782 493.4836483 -294.14453125 493.49023438 C-303.40058862 493.47299336 -312.21264841 492.96056555 -321.3203125 491.16796875 C-320.04526008 488.36368309 -318.74054126 486.35192504 -316.52734375 484.21484375 C-315.71052124 483.41542358 -315.71052124 483.41542358 -314.87719727 482.59985352 C-314.30155029 482.04483154 -313.72590332 481.48980957 -313.1328125 480.91796875 C-309.42673106 477.28502363 -305.76684923 473.67088989 -302.3828125 469.73046875 C-301.85816406 469.12460937 -301.33351563 468.51875 -300.79296875 467.89453125 C-299.78616219 466.71413735 -298.79454627 465.52066175 -297.81640625 464.31640625 C-296.3203125 462.60546875 -296.3203125 462.60546875 -293.3203125 460.16796875 C-288.29916058 460.51572775 -283.59312598 461.81904027 -278.7578125 463.16796875 C-261.10843614 468.08161294 -239.98129731 469.1941263 -223.3203125 460.625 C-211.81770855 453.79532891 -205.24677736 444.88476706 -199.3203125 433.16796875 C-198.7840625 432.10964844 -198.2478125 431.05132812 -197.6953125 429.9609375 C-190.21509357 413.85119517 -187.20223033 396.2012982 -184.13427734 378.83105469 C-183.8304195 377.12403968 -183.52651587 375.41703283 -183.22257042 373.71003342 C-179.61868449 353.40260648 -176.19969033 333.06337777 -172.77789736 312.72465229 C-171.84860997 307.20462412 -170.91655432 301.68506343 -169.98471069 296.16546631 C-167.23409451 279.86971866 -164.48787271 263.57323089 -161.74206543 247.27667236 C-159.58881387 234.49737782 -157.43444652 221.71827339 -155.27682912 208.93971515 C-154.17194737 202.39524316 -153.06933234 195.8503946 -151.96845555 189.30524778 C-151.28814161 185.26342494 -150.60585659 181.22193669 -149.92301559 177.18054008 C-149.6065231 175.30489289 -149.29085998 173.42910554 -148.97607422 171.55317116 C-148.54765747 169.00074886 -148.11632063 166.448837 -147.68423462 163.89703369 C-147.55963006 163.15029428 -147.43502549 162.40355486 -147.30664504 161.63418698 C-146.80952306 158.71385028 -146.25899803 155.98402534 -145.3203125 153.16796875 C-160.1703125 153.16796875 -175.0203125 153.16796875 -190.3203125 153.16796875 C-187.58079072 146.31916429 -183.67704668 140.17785156 -177.3203125 136.16796875 C-171.47245884 134.22543644 -165.20797538 134.70943772 -159.1328125 134.91796875 C-157.49677585 134.92996862 -155.86068974 134.93651982 -154.22460938 134.9375 C-150.25315054 134.95157326 -146.28963717 135.03911321 -142.3203125 135.16796875 C-142.09480713 134.20310547 -142.09480713 134.20310547 -141.86474609 133.21875 C-137.3157665 113.93630288 -131.66856263 96.63455917 -122.3203125 79.16796875 C-121.75441406 78.10707031 -121.18851563 77.04617187 -120.60546875 75.953125 C-102.32275837 43.21631889 -69.64837213 15.95556783 -33.53369141 5.34960938 C-22.44671783 2.39409612 -11.52115827 0.01750503 0 0 Z " fill="#2563EB" transform="translate(804.3203125,-0.16796875)"/>
<path d="M0 0 C-0.65907685 6.51534931 -2.04475221 12.67485752 -3.640625 19.01953125 C-4.21434853 21.3565978 -4.78626239 23.69410909 -5.35668945 26.03198242 C-5.66402008 27.2914267 -5.97135071 28.55087097 -6.28799438 29.84848022 C-14.25057914 62.60308016 -20.85879335 95.60674925 -27.3125 128.6875 C-27.546772 129.8862891 -27.78104401 131.0850782 -28.02241516 132.32019424 C-29.60194996 140.40340819 -31.17325516 148.48818389 -32.73828125 156.57421875 C-32.94219042 157.62507534 -33.14609959 158.67593193 -33.35618782 159.75863266 C-39.58230401 182.20044658 -39.58230401 182.20044658 -37 204 C-33.17235459 207.45668418 -30.21204197 207.69160772 -25.1875 207.53125 C-3.90259684 203.98376614 15.43184413 181.58326965 28.92578125 166.1328125 C29.61027344 165.42898438 30.29476562 164.72515625 31 164 C31.66 164 32.32 164 33 164 C32.71422932 166.02167552 32.42108213 168.04230888 32.125 170.0625 C31.96257812 171.18785156 31.80015625 172.31320312 31.6328125 173.47265625 C30.38983501 180.40110488 28.83912372 184.93867197 23.875 190 C23.37709961 190.52271484 22.87919922 191.04542969 22.36621094 191.58398438 C18.4472246 195.65204885 14.3793279 199.43029574 10 203 C8.92301298 203.91256678 7.84620674 204.82534694 6.76953125 205.73828125 C-11.1071694 220.68737977 -31.5502921 232.88240379 -55.62109375 231.84375 C-63.76827437 230.86420458 -69.3178586 228.47757799 -75.25 222.875 C-83.98309158 208.52777812 -81.60963798 193.40028282 -78.90625 177.6015625 C-78.68711441 176.30523392 -78.46797882 175.00890533 -78.24220276 173.67329407 C-75.46875832 157.44917645 -72.18602337 141.32164697 -68.9375 125.1875 C-63.95625507 100.60450873 -63.95625507 100.60450873 -59.59375 75.90625 C-59.4332164 74.93024338 -59.2726828 73.95423676 -59.10728455 72.94865417 C-56.46590403 56.95640407 -56.46590403 56.95640407 -61 42 C-66.8942549 38.07049673 -74.39614299 39.30599103 -81.10351562 40.59765625 C-88.44717876 42.21826822 -95.73241698 44.068826 -103 46 C-102.69147815 44.041036 -102.3780582 42.08284287 -102.0625 40.125 C-101.88847656 39.03445312 -101.71445312 37.94390625 -101.53515625 36.8203125 C-101 34 -101 34 -100 32 C-98.38885784 31.25414848 -98.38885784 31.25414848 -96.26213074 30.54464722 C-95.05710152 30.13664383 -95.05710152 30.13664383 -93.82772827 29.72039795 C-92.93993683 29.42836487 -92.05214539 29.13633179 -91.13745117 28.83544922 C-90.20738754 28.52304291 -89.27732391 28.2106366 -88.31907654 27.88876343 C-85.22948957 26.85324357 -82.13637974 25.82872215 -79.04296875 24.8046875 C-76.90147582 24.09058051 -74.76014578 23.37598487 -72.61897278 22.66091919 C-68.12378123 21.1615673 -63.62687132 19.66751947 -59.12866211 18.17724609 C-53.3584068 16.26517396 -47.59223108 14.3411303 -41.82725048 12.41322136 C-37.40301038 10.93495354 -32.97684 9.46253884 -28.55004311 7.99194717 C-26.42318 7.28472278 -24.2968839 6.57579086 -22.17116356 5.86513901 C-19.19959792 4.87280321 -16.22556936 3.88823994 -13.25073242 2.90576172 C-12.36901367 2.60968018 -11.48729492 2.31359863 -10.57885742 2.00854492 C-9.76704514 1.74218231 -8.95523285 1.4758197 -8.11882019 1.2013855 C-7.41586917 0.96800413 -6.71291815 0.73462276 -5.98866558 0.49416924 C-4 0 -4 0 0 0 Z " fill="#2563EB" transform="translate(561,131)"/>
<path d="M0 0 C-0.65907685 6.51534931 -2.04475221 12.67485752 -3.640625 19.01953125 C-4.21434853 21.3565978 -4.78626239 23.69410909 -5.35668945 26.03198242 C-5.66402008 27.2914267 -5.97135071 28.55087097 -6.28799438 29.84848022 C-14.25057914 62.60308016 -20.85879335 95.60674925 -27.3125 128.6875 C-27.546772 129.8862891 -27.78104401 131.0850782 -28.02241516 132.32019424 C-29.60194996 140.40340819 -31.17325516 148.48818389 -32.73828125 156.57421875 C-32.94219042 157.62507534 -33.14609959 158.67593193 -33.35618782 159.75863266 C-39.58230401 182.20044658 -39.58230401 182.20044658 -37 204 C-33.17235459 207.45668418 -30.21204197 207.69160772 -25.1875 207.53125 C-3.90259684 203.98376614 15.43184413 181.58326965 28.92578125 166.1328125 C29.61027344 165.42898438 30.29476563 164.72515625 31 164 C31.66 164 32.32 164 33 164 C32.71422932 166.02167552 32.42108213 168.04230888 32.125 170.0625 C31.96257812 171.18785156 31.80015625 172.31320312 31.6328125 173.47265625 C30.38983501 180.40110488 28.83912372 184.93867197 23.875 190 C23.37709961 190.52271484 22.87919922 191.04542969 22.36621094 191.58398438 C18.4472246 195.65204885 14.3793279 199.43029574 10 203 C8.92301298 203.91256678 7.84620674 204.82534694 6.76953125 205.73828125 C-13.4371669 222.63580207 -34.15884399 233.01407123 -61 231 C-67.23063594 229.78462331 -71.94407087 227.22477916 -75.75 222.078125 C-84.12568307 208.1535519 -81.51629963 192.85480934 -78.90625 177.6015625 C-78.68711441 176.30523392 -78.46797882 175.00890533 -78.24220276 173.67329407 C-75.46875832 157.44917645 -72.18602337 141.32164697 -68.9375 125.1875 C-63.95625507 100.60450873 -63.95625507 100.60450873 -59.59375 75.90625 C-59.4332164 74.93024338 -59.2726828 73.95423676 -59.10728455 72.94865417 C-56.46590403 56.95640407 -56.46590403 56.95640407 -61 42 C-66.8942549 38.07049673 -74.39614299 39.30599103 -81.10351562 40.59765625 C-88.44717876 42.21826822 -95.73241698 44.068826 -103 46 C-102.69147815 44.041036 -102.3780582 42.08284287 -102.0625 40.125 C-101.88847656 39.03445312 -101.71445313 37.94390625 -101.53515625 36.8203125 C-101 34 -101 34 -100 32 C-98.38885784 31.25414848 -98.38885784 31.25414848 -96.26213074 30.54464722 C-95.05710152 30.13664383 -95.05710152 30.13664383 -93.82772827 29.72039795 C-92.93993683 29.42836487 -92.05214539 29.13633179 -91.13745117 28.83544922 C-90.20738754 28.52304291 -89.27732391 28.2106366 -88.31907654 27.88876343 C-85.22948957 26.85324357 -82.13637974 25.82872215 -79.04296875 24.8046875 C-76.90147582 24.09058051 -74.76014578 23.37598487 -72.61897278 22.66091919 C-68.12378123 21.1615673 -63.62687132 19.66751947 -59.12866211 18.17724609 C-53.3584068 16.26517396 -47.59223108 14.3411303 -41.82725048 12.41322136 C-37.40301038 10.93495354 -32.97684 9.46253884 -28.55004311 7.99194717 C-26.42318 7.28472278 -24.2968839 6.57579086 -22.17116356 5.86513901 C-19.19959792 4.87280321 -16.22556936 3.88823994 -13.25073242 2.90576172 C-12.36901367 2.60968018 -11.48729492 2.31359863 -10.57885742 2.00854492 C-9.76704514 1.74218231 -8.95523285 1.4758197 -8.11882019 1.2013855 C-7.41586917 0.96800413 -6.71291815 0.73462276 -5.98866558 0.49416924 C-4 0 -4 0 0 0 Z " fill="#2563EB" transform="translate(2012,131)"/>
<path d="M0 0 C-1.41005958 4.48670869 -3.14556565 8.74468916 -5.1171875 13.0078125 C-5.41561554 13.65571747 -5.71404358 14.30362244 -6.02151489 14.97116089 C-6.65008283 16.33170137 -7.28047251 17.69140156 -7.91259766 19.05029297 C-8.87364277 21.12207413 -9.82166779 23.19950532 -10.76953125 25.27734375 C-11.38462361 26.6045345 -12.00048323 27.93136998 -12.6171875 29.2578125 C-13.17003418 30.4555127 -13.72288086 31.65321289 -14.29248047 32.88720703 C-16.88378824 37.61113813 -19.92044048 40.20612076 -24.68920898 42.62548828 C-25.61374374 43.09922882 -26.5382785 43.57296936 -27.49082947 44.06106567 C-28.48256668 44.55911713 -29.47430389 45.05716858 -30.49609375 45.5703125 C-31.5217897 46.09261444 -32.54748566 46.61491638 -33.60426331 47.15304565 C-35.77022554 48.25425465 -37.93807565 49.35175721 -40.10766602 50.44580078 C-43.42537367 52.11888482 -46.73755033 53.802513 -50.04882812 55.48828125 C-52.15593612 56.55791022 -54.26334798 57.62694083 -56.37109375 58.6953125 C-57.36080673 59.19741241 -58.35051971 59.69951233 -59.370224 60.21682739 C-60.76175438 60.91798172 -60.76175438 60.91798172 -62.18139648 61.63330078 C-62.99317856 62.04315216 -63.80496063 62.45300354 -64.64134216 62.87527466 C-67.05800715 64.02766069 -69.50410738 65.03280545 -72 66 C-70.25023319 60.07079019 -67.6185396 54.61317647 -64.9375 49.0625 C-64.49728516 48.09892578 -64.05707031 47.13535156 -63.60351562 46.14257812 C-60.20616449 39.15196671 -56.48118932 35.21013591 -50 31 C-49.06889404 30.38181396 -48.13778809 29.76362793 -47.1784668 29.12670898 C-44.09712455 27.11404035 -40.99077088 25.14639823 -37.875 23.1875 C-35.65424257 21.77975792 -33.434188 20.37090644 -31.21484375 18.9609375 C-30.14862793 18.28385742 -29.08241211 17.60677734 -27.98388672 16.90917969 C-24.10195992 14.42540718 -20.26145345 11.88435806 -16.4375 9.3125 C-2.55904266 0 -2.55904266 0 0 0 Z " fill="#2563EB" transform="translate(2041,30)"/>
<path d="M0 0 C-1.41005958 4.48670869 -3.14556565 8.74468916 -5.1171875 13.0078125 C-5.41561554 13.65571747 -5.71404358 14.30362244 -6.02151489 14.97116089 C-6.65008283 16.33170137 -7.28047251 17.69140156 -7.91259766 19.05029297 C-8.87364277 21.12207413 -9.82166779 23.19950532 -10.76953125 25.27734375 C-11.38462361 26.6045345 -12.00048323 27.93136998 -12.6171875 29.2578125 C-13.17003418 30.4555127 -13.72288086 31.65321289 -14.29248047 32.88720703 C-16.88378824 37.61113813 -19.92044048 40.20612076 -24.68920898 42.62548828 C-25.61374374 43.09922882 -26.5382785 43.57296936 -27.49082947 44.06106567 C-28.48256668 44.55911713 -29.47430389 45.05716858 -30.49609375 45.5703125 C-31.5217897 46.09261444 -32.54748566 46.61491638 -33.60426331 47.15304565 C-35.77022554 48.25425465 -37.93807565 49.35175721 -40.10766602 50.44580078 C-43.42537367 52.11888482 -46.73755033 53.802513 -50.04882812 55.48828125 C-52.15593612 56.55791022 -54.26334798 57.62694083 -56.37109375 58.6953125 C-57.36080673 59.19741241 -58.35051971 59.69951233 -59.370224 60.21682739 C-60.76175438 60.91798172 -60.76175438 60.91798172 -62.18139648 61.63330078 C-62.99317856 62.04315216 -63.80496063 62.45300354 -64.64134216 62.87527466 C-67.05800715 64.02766069 -69.50410738 65.03280545 -72 66 C-70.25023319 60.07079019 -67.6185396 54.61317647 -64.9375 49.0625 C-64.49728516 48.09892578 -64.05707031 47.13535156 -63.60351562 46.14257812 C-60.20616449 39.15196671 -56.48118932 35.21013591 -50 31 C-49.06889404 30.38181396 -48.13778809 29.76362793 -47.1784668 29.12670898 C-44.09712455 27.11404035 -40.99077088 25.14639823 -37.875 23.1875 C-35.65424257 21.77975792 -33.434188 20.37090644 -31.21484375 18.9609375 C-30.14862793 18.28385742 -29.08241211 17.60677734 -27.98388672 16.90917969 C-24.10195992 14.42540718 -20.26145345 11.88435806 -16.4375 9.3125 C-2.55904266 0 -2.55904266 0 0 0 Z " fill="#2563EB" transform="translate(590,30)"/>
</svg>
