<?xml version="1.0" encoding="UTF-8"?>
<svg xmlns="http://www.w3.org/2000/svg" width="200" height="200" viewBox="0 0 200 200">
  <defs>
    <!-- Dégradés -->
    <radialGradient id="bgGradient" cx="50%" cy="50%" r="50%">
      <stop offset="0%" stop-color="#1e90ff" stop-opacity="0.8"/>
      <stop offset="100%" stop-color="#0d1b2a"/>
    </radialGradient>

    <linearGradient id="lockBody" x1="0" y1="0" x2="0" y2="1">
      <stop offset="0%" stop-color="#3aa0ff"/>
      <stop offset="100%" stop-color="#0050a0"/>
    </linearGradient>

    <linearGradient id="lockShackle" x1="0" y1="0" x2="0" y2="1">
      <stop offset="0%" stop-color="#e0e0e0"/>
      <stop offset="100%" stop-color="#888"/>
    </linearGradient>

    <radialGradient id="keyhole" cx="50%" cy="40%" r="60%">
      <stop offset="0%" stop-color="#000" stop-opacity="0.8"/>
      <stop offset="100%" stop-color="#222"/>
    </radialGradient>
  </defs>

  <!-- Cercle de fond avec glow -->
  <circle cx="100" cy="100" r="90" fill="url(#bgGradient)" stroke="#1e90ff" stroke-width="4"/>

  <!-- Glow externe -->
  <circle cx="100" cy="100" r="95" fill="none" stroke="#1e90ff" stroke-opacity="0.5" stroke-width="8"/>

  <!-- Corps du cadenas -->
  <rect x="60" y="90" width="80" height="70" rx="14" ry="14" fill="url(#lockBody)" stroke="#0d1b2a" stroke-width="2"/>

  <!-- Anse du cadenas -->
  <path d="M70 90 V60 a30 30 0 0 1 60 0 V90" fill="none" stroke="url(#lockShackle)" stroke-width="12"/>

  <!-- Reflet sur l'anse -->
  <path d="M75 90 V62 a25 25 0 0 1 50 0 V90" fill="none" stroke="#fff" stroke-width="3" stroke-opacity="0.6"/>

  <!-- Trou de serrure -->
  <circle cx="100" cy="125" r="10" fill="url(#keyhole)"/>
  <rect x="95" y="125" width="10" height="22" fill="url(#keyhole)" rx="3"/>

  <!-- Pixels digitaux décoratifs -->
  <rect x="150" y="50" width="8" height="8" fill="#1e90ff"/>
  <rect x="140" y="40" width="6" height="6" fill="#1e90ff"/>
  <rect x="155" y="65" width="5" height="5" fill="#1e90ff"/>
  <rect x="45" y="150" width="7" height="7" fill="#1e90ff"/>
  <rect x="55" y="160" width="6" height="6" fill="#1e90ff"/>
  <rect x="40" y="140" width="5" height="5" fill="#1e90ff"/>
</svg>
